<svg width="1276" height="1035" viewBox="0 0 1276 1035" fill="none" xmlns="http://www.w3.org/2000/svg">
<g filter="url(#filter0_d)">
<path d="M88.915 572.84L223.2 707.112C241.954 725.864 267.388 736.398 293.908 736.398H364.601C391.121 736.398 416.556 746.933 435.309 765.685L596.349 926.712C615.102 945.464 640.535 955.999 667.054 956H1055.91C1100.87 956 1137.32 919.55 1137.32 874.586C1137.32 863.894 1135.22 853.307 1131.12 843.429C1127.03 833.551 1121.03 824.576 1113.47 817.016L1027.08 730.63C1015.05 718.598 1015.05 699.09 1027.08 687.056C1029.94 684.195 1033.34 681.925 1037.08 680.376C1040.81 678.828 1044.82 678.031 1048.87 678.031C1065.88 678.031 1079.68 664.236 1079.68 647.219C1079.68 639.047 1076.43 631.209 1070.66 625.431L875.32 430.11C856.567 411.358 831.132 400.823 804.612 400.823H570.17C543.65 400.823 518.215 390.288 499.462 371.536L464.209 336.286C445.456 317.534 420.022 307 393.502 307H158.35C126.581 307 100.827 332.754 100.827 364.523C100.827 372.077 102.315 379.558 105.206 386.537C108.097 393.516 112.335 399.858 117.677 405.199L146.438 433.959C162.324 449.843 162.325 475.599 146.441 491.484C142.664 495.262 138.179 498.258 133.244 500.302C128.309 502.347 123.019 503.399 117.677 503.399C95.212 503.399 77 521.61 77 544.075C76.9999 549.417 78.0521 554.707 80.0965 559.642C82.1409 564.577 85.1374 569.062 88.915 572.839V572.84Z" fill="black"/>
</g>
<path d="M88.915 572.84L223.2 707.112C241.954 725.864 267.388 736.398 293.908 736.398H364.601C391.121 736.398 416.556 746.933 435.309 765.685L596.349 926.712C615.102 945.464 640.535 955.999 667.054 956H1055.91C1100.87 956 1137.32 919.55 1137.32 874.586C1137.32 863.894 1135.22 853.307 1131.12 843.429C1127.03 833.551 1121.03 824.576 1113.47 817.016L1027.08 730.63C1015.05 718.598 1015.05 699.09 1027.08 687.056C1029.94 684.195 1033.34 681.925 1037.08 680.376C1040.81 678.828 1044.82 678.031 1048.87 678.031C1065.88 678.031 1079.68 664.236 1079.68 647.219C1079.68 639.047 1076.43 631.209 1070.66 625.431L875.32 430.11C856.567 411.358 831.132 400.823 804.612 400.823H570.17C543.65 400.823 518.215 390.288 499.462 371.536L464.209 336.286C445.456 317.534 420.022 307 393.502 307H158.35C126.581 307 100.827 332.754 100.827 364.523C100.827 372.077 102.315 379.558 105.206 386.537C108.097 393.516 112.335 399.858 117.677 405.199L146.438 433.959C162.324 449.843 162.325 475.599 146.441 491.484C142.664 495.262 138.179 498.258 133.244 500.302C128.309 502.347 123.019 503.399 117.677 503.399C95.212 503.399 77 521.61 77 544.075C76.9999 549.417 78.0521 554.707 80.0965 559.642C82.1409 564.577 85.1374 569.062 88.915 572.839V572.84Z" fill="#2D314D"/>
<path fill-rule="evenodd" clip-rule="evenodd" d="M226.915 265.84L361.2 400.112C379.954 418.864 405.388 429.398 431.908 429.398H502.601C529.121 429.398 554.556 439.933 573.309 458.685L734.349 619.712C753.102 638.464 778.535 648.999 805.054 649H1193.91C1238.87 649 1275.32 612.55 1275.32 567.586C1275.32 556.894 1273.22 546.307 1269.12 536.429C1265.03 526.551 1259.03 517.576 1251.47 510.016L1165.08 423.63C1153.05 411.598 1153.05 392.09 1165.08 380.056C1167.94 377.195 1171.34 374.925 1175.08 373.376C1178.81 371.828 1182.82 371.031 1186.87 371.031C1203.88 371.031 1217.68 357.236 1217.68 340.219C1217.68 332.047 1214.43 324.209 1208.66 318.431L1013.32 123.11C994.567 104.358 969.132 93.8231 942.612 93.823H708.17C681.65 93.8229 656.215 83.2881 637.462 64.536L602.209 29.286C583.456 10.5345 558.022 9.44326e-05 531.502 0H296.35C264.581 0 238.827 25.754 238.827 57.523C238.827 65.0773 240.315 72.5577 243.206 79.5369C246.097 86.5161 250.335 92.8575 255.677 98.199L284.438 126.959C300.324 142.843 300.325 168.599 284.441 184.484C280.664 188.262 276.179 191.258 271.244 193.302C266.309 195.347 261.019 196.399 255.677 196.399C233.212 196.399 215 214.61 215 237.075C215 242.417 216.052 247.707 218.097 252.642C220.141 257.577 223.137 262.062 226.915 265.839V265.84Z" fill="url(#paint0_linear)"/>
<defs>
<filter id="filter0_d" x="0" y="232" width="1214.32" height="803" filterUnits="userSpaceOnUse" color-interpolation-filters="sRGB">
<feFlood flood-opacity="0" result="BackgroundImageFix"/>
<feColorMatrix in="SourceAlpha" type="matrix" values="0 0 0 0 0 0 0 0 0 0 0 0 0 0 0 0 0 0 127 0"/>
<feOffset dy="2"/>
<feGaussianBlur stdDeviation="38.5"/>
<feColorMatrix type="matrix" values="0 0 0 0 0 0 0 0 0 0 0 0 0 0 0 0 0 0 0.0240111 0"/>
<feBlend mode="normal" in2="BackgroundImageFix" result="effect1_dropShadow"/>
<feBlend mode="normal" in="SourceGraphic" in2="effect1_dropShadow" result="shape"/>
</filter>
<linearGradient id="paint0_linear" x1="215" y1="234.594" x2="1158.59" y2="661.703" gradientUnits="userSpaceOnUse">
<stop stop-color="#33D35E"/>
<stop offset="1" stop-color="#2AB6D9"/>
</linearGradient>
</defs>
</svg>
