<svg width="819" height="780" viewBox="0 0 819 780" fill="none" xmlns="http://www.w3.org/2000/svg">
<g filter="url(#filter0_d)">
<path d="M88.915 317.84L223.2 452.112C241.954 470.864 267.388 481.398 293.908 481.398H364.601C391.121 481.398 416.556 491.933 435.309 510.685L596.349 671.712C615.102 690.464 640.535 700.999 667.054 701H1055.91C1100.87 701 1137.32 664.55 1137.32 619.586C1137.32 608.894 1135.22 598.307 1131.12 588.429C1127.03 578.551 1121.03 569.576 1113.47 562.016L1027.08 475.63C1015.05 463.598 1015.05 444.09 1027.08 432.056C1029.94 429.195 1033.34 426.925 1037.08 425.376C1040.81 423.828 1044.82 423.031 1048.87 423.031C1065.88 423.031 1079.68 409.236 1079.68 392.219C1079.68 384.047 1076.43 376.209 1070.66 370.431L875.32 175.11C856.567 156.358 831.132 145.823 804.612 145.823H570.17C543.65 145.823 518.215 135.288 499.462 116.536L464.209 81.286C445.456 62.5345 420.022 52.0001 393.502 52H158.35C126.581 52 100.827 77.754 100.827 109.523C100.827 117.077 102.315 124.558 105.206 131.537C108.097 138.516 112.335 144.858 117.677 150.199L146.438 178.959C162.324 194.843 162.325 220.599 146.441 236.484C142.664 240.262 138.179 243.258 133.244 245.302C128.309 247.347 123.019 248.399 117.677 248.399C95.212 248.399 77 266.61 77 289.075C76.9999 294.417 78.0521 299.707 80.0965 304.642C82.1409 309.577 85.1374 314.062 88.915 317.839V317.84Z" fill="black"/>
</g>
<path d="M88.915 317.84L223.2 452.112C241.954 470.864 267.388 481.398 293.908 481.398H364.601C391.121 481.398 416.556 491.933 435.309 510.685L596.349 671.712C615.102 690.464 640.535 700.999 667.054 701H1055.91C1100.87 701 1137.32 664.55 1137.32 619.586C1137.32 608.894 1135.22 598.307 1131.12 588.429C1127.03 578.551 1121.03 569.576 1113.47 562.016L1027.08 475.63C1015.05 463.598 1015.05 444.09 1027.08 432.056C1029.94 429.195 1033.34 426.925 1037.08 425.376C1040.81 423.828 1044.82 423.031 1048.87 423.031C1065.88 423.031 1079.68 409.236 1079.68 392.219C1079.68 384.047 1076.43 376.209 1070.66 370.431L875.32 175.11C856.567 156.358 831.132 145.823 804.612 145.823H570.17C543.65 145.823 518.215 135.288 499.462 116.536L464.209 81.286C445.456 62.5345 420.022 52.0001 393.502 52H158.35C126.581 52 100.827 77.754 100.827 109.523C100.827 117.077 102.315 124.558 105.206 131.537C108.097 138.516 112.335 144.858 117.677 150.199L146.438 178.959C162.324 194.843 162.325 220.599 146.441 236.484C142.664 240.262 138.179 243.258 133.244 245.302C128.309 247.347 123.019 248.399 117.677 248.399C95.212 248.399 77 266.61 77 289.075C76.9999 294.417 78.0521 299.707 80.0965 304.642C82.1409 309.577 85.1374 314.062 88.915 317.839V317.84Z" fill="#2D314D"/>
<path fill-rule="evenodd" clip-rule="evenodd" d="M226.915 10.84L361.2 145.112C379.954 163.864 405.388 174.398 431.908 174.398H502.601C529.121 174.398 554.556 184.933 573.309 203.685L734.349 364.712C753.102 383.464 778.535 393.999 805.054 394H1193.91C1238.87 394 1275.32 357.55 1275.32 312.586C1275.32 301.894 1273.22 291.307 1269.12 281.429C1265.03 271.551 1259.03 262.576 1251.47 255.016L1165.08 168.63C1153.05 156.598 1153.05 137.09 1165.08 125.056C1167.94 122.195 1171.34 119.925 1175.08 118.376C1178.81 116.828 1182.82 116.031 1186.87 116.031C1203.88 116.031 1217.68 102.236 1217.68 85.219C1217.68 77.047 1214.43 69.209 1208.66 63.431L1013.32 -131.89C994.567 -150.642 969.132 -161.177 942.612 -161.177H708.17C681.65 -161.177 656.215 -171.712 637.462 -190.464L602.209 -225.714C583.456 -244.466 558.022 -255 531.502 -255H296.35C264.581 -255 238.827 -229.246 238.827 -197.477C238.827 -189.923 240.315 -182.442 243.206 -175.463C246.097 -168.484 250.335 -162.142 255.677 -156.801L284.438 -128.041C300.324 -112.157 300.325 -86.401 284.441 -70.516C280.664 -66.7385 276.179 -63.7419 271.244 -61.6975C266.309 -59.6532 261.019 -58.6009 255.677 -58.601C233.212 -58.601 215 -40.39 215 -17.925C215 -12.583 216.052 -7.29325 218.097 -2.35789C220.141 2.57746 223.137 7.06177 226.915 10.839V10.84Z" fill="url(#paint0_linear)"/>
<defs>
<filter id="filter0_d" x="0" y="-23" width="1214.32" height="803" filterUnits="userSpaceOnUse" color-interpolation-filters="sRGB">
<feFlood flood-opacity="0" result="BackgroundImageFix"/>
<feColorMatrix in="SourceAlpha" type="matrix" values="0 0 0 0 0 0 0 0 0 0 0 0 0 0 0 0 0 0 127 0"/>
<feOffset dy="2"/>
<feGaussianBlur stdDeviation="38.5"/>
<feColorMatrix type="matrix" values="0 0 0 0 0 0 0 0 0 0 0 0 0 0 0 0 0 0 0.0240111 0"/>
<feBlend mode="normal" in2="BackgroundImageFix" result="effect1_dropShadow"/>
<feBlend mode="normal" in="SourceGraphic" in2="effect1_dropShadow" result="shape"/>
</filter>
<linearGradient id="paint0_linear" x1="215" y1="-20.406" x2="1158.59" y2="406.703" gradientUnits="userSpaceOnUse">
<stop stop-color="#33D35E"/>
<stop offset="1" stop-color="#2AB6D9"/>
</linearGradient>
</defs>
</svg>
