<svg width="786" height="613" viewBox="0 0 786 613" fill="none" xmlns="http://www.w3.org/2000/svg">
<g filter="url(#filter0_d)">
<path d="M86.1481 239.817L189.25 342.908C203.648 357.305 223.176 365.394 243.538 365.393H297.815C318.177 365.394 337.705 373.482 352.103 387.88L475.747 511.513C490.145 525.91 509.672 533.999 530.033 534H828.588C863.11 534 891.097 506.014 891.097 471.492C891.097 463.283 889.479 455.154 886.338 447.57C883.196 439.986 878.591 433.095 872.787 427.291L806.456 360.965C797.218 351.727 797.217 336.749 806.455 327.51C808.652 325.313 811.26 323.57 814.13 322.381C817 321.192 820.076 320.58 823.183 320.58C836.249 320.58 846.84 309.989 846.84 296.923C846.84 290.649 844.348 284.631 839.911 280.195L689.936 130.231C675.538 115.833 656.01 107.745 635.648 107.745H455.647C435.285 107.745 415.757 99.6564 401.359 85.2588L374.292 58.1945C359.894 43.7974 340.366 35.7093 320.005 35.7092H139.459C115.067 35.7092 95.294 55.4827 95.294 79.8744C95.294 85.6745 96.4366 91.4177 98.6563 96.7763C100.876 102.135 104.13 107.004 108.231 111.105L130.313 133.186C142.51 145.382 142.511 165.157 130.316 177.353C127.416 180.253 123.973 182.554 120.183 184.123C116.394 185.693 112.333 186.501 108.231 186.501C90.9829 186.501 77 200.483 77 217.731C77 221.833 77.8078 225.894 79.3775 229.683C80.9471 233.473 83.2478 236.916 86.1481 239.816V239.817Z" fill="black"/>
</g>
<path d="M86.1481 239.817L189.25 342.908C203.648 357.305 223.176 365.394 243.538 365.393H297.815C318.177 365.394 337.705 373.482 352.103 387.88L475.747 511.513C490.145 525.91 509.672 533.999 530.033 534H828.588C863.11 534 891.097 506.014 891.097 471.492C891.097 463.283 889.479 455.154 886.338 447.57C883.196 439.986 878.591 433.095 872.787 427.291L806.456 360.965C797.218 351.727 797.217 336.749 806.455 327.51C808.652 325.313 811.26 323.57 814.13 322.381C817 321.192 820.076 320.58 823.183 320.58C836.249 320.58 846.84 309.989 846.84 296.923C846.84 290.649 844.348 284.631 839.911 280.195L689.936 130.231C675.538 115.833 656.01 107.745 635.648 107.745H455.647C435.285 107.745 415.757 99.6564 401.359 85.2588L374.292 58.1945C359.894 43.7974 340.366 35.7093 320.005 35.7092H139.459C115.067 35.7092 95.294 55.4827 95.294 79.8744C95.294 85.6745 96.4366 91.4177 98.6563 96.7763C100.876 102.135 104.13 107.004 108.231 111.105L130.313 133.186C142.51 145.382 142.511 165.157 130.316 177.353C127.416 180.253 123.973 182.554 120.183 184.123C116.394 185.693 112.333 186.501 108.231 186.501C90.9829 186.501 77 200.483 77 217.731C77 221.833 77.8078 225.894 79.3775 229.683C80.9471 233.473 83.2478 236.916 86.1481 239.816V239.817Z" fill="#2D314D"/>
<path fill-rule="evenodd" clip-rule="evenodd" d="M192.102 4.10728L295.204 107.199C309.603 121.596 329.13 129.684 349.492 129.684H403.769C424.131 129.684 443.659 137.773 458.057 152.17L581.701 275.804C596.099 290.201 615.626 298.29 635.987 298.291H934.542C969.064 298.291 997.051 270.305 997.051 235.783C997.051 227.574 995.434 219.445 992.292 211.861C989.15 204.277 984.546 197.386 978.741 191.581L912.41 125.256C903.172 116.018 903.171 101.04 912.409 91.8003C914.606 89.6035 917.214 87.8608 920.084 86.6719C922.954 85.483 926.031 84.8711 929.137 84.8711C942.203 84.8711 952.794 74.2795 952.794 61.2142C952.794 54.9399 950.302 48.922 945.865 44.4857L795.89 -105.478C781.492 -119.876 761.964 -127.964 741.602 -127.964H561.601C541.239 -127.964 521.712 -136.053 507.313 -150.45L480.246 -177.515C465.848 -191.912 446.32 -200 425.959 -200H245.413C221.022 -200 201.248 -180.227 201.248 -155.835C201.248 -150.035 202.391 -144.291 204.61 -138.933C206.83 -133.574 210.084 -128.706 214.185 -124.605L236.267 -102.523C248.464 -90.3277 248.465 -70.5527 236.27 -58.3564C233.37 -55.4561 229.927 -53.1554 226.137 -51.5858C222.348 -50.0161 218.287 -49.2082 214.185 -49.2083C196.937 -49.2083 182.954 -35.2262 182.954 -17.978C182.954 -13.8765 183.762 -9.81511 185.332 -6.02583C186.901 -2.23655 189.202 1.20643 192.102 4.10651V4.10728Z" fill="url(#paint0_linear)"/>
<defs>
<filter id="filter0_d" x="0" y="-39.2908" width="968.097" height="652.291" filterUnits="userSpaceOnUse" color-interpolation-filters="sRGB">
<feFlood flood-opacity="0" result="BackgroundImageFix"/>
<feColorMatrix in="SourceAlpha" type="matrix" values="0 0 0 0 0 0 0 0 0 0 0 0 0 0 0 0 0 0 127 0"/>
<feOffset dy="2"/>
<feGaussianBlur stdDeviation="38.5"/>
<feColorMatrix type="matrix" values="0 0 0 0 0 0 0 0 0 0 0 0 0 0 0 0 0 0 0.0240111 0"/>
<feBlend mode="normal" in2="BackgroundImageFix" result="effect1_dropShadow"/>
<feBlend mode="normal" in="SourceGraphic" in2="effect1_dropShadow" result="shape"/>
</filter>
<linearGradient id="paint0_linear" x1="182.954" y1="-19.8828" x2="907.424" y2="308.044" gradientUnits="userSpaceOnUse">
<stop stop-color="#33D35E"/>
<stop offset="1" stop-color="#2AB6D9"/>
</linearGradient>
</defs>
</svg>
